Format : MPEG-4
Format profile : Base Media / Version 2
Codec ID : mp42
File size : 414 MiB
Duration : 1h 40mn
Overall bit rate : 575 Kbps
Encoded date : UTC 2010-10-17 11:48:53
Tagged date : UTC 2010-10-17 11:49:26
Writing application : mp4creator 1.6.1d

Video
ID : 1
Format : AVC
Format/Info : Advanced Video Codec
Format profile : Baseline@L1.3
Format settings, CABAC : No
Format settings, ReFrames : 1 frame
Codec ID : avc1
Codec ID/Info : Advanced Video Coding
Duration : 1h 40mn
Bit rate mode : Variable
Bit rate : 510 Kbps
Width : 480 pixels
Height : 272 pixels
Display aspect ratio : 16:9
Original display aspect ratio : 16:9
Frame rate mode : Constant
Frame rate : 24.000 fps
Resolution : 24 bits
Colorimetry : 4:2:0
Scan type : Progressive
Bits/(Pixel*Frame) : 0.163
Stream size : 367 MiB (89%)
Encoded date : UTC 2010-10-17 11:48:53
Tagged date : UTC 2010-10-17 11:49:22

Audio
ID : 2
Format : AAC
Format/Info : Advanced Audio Codec
Format version : Version 4
Format profile : LC
Format settings, SBR : Yes
Format settings, PS : No
Codec ID : 40
Duration : 1h 40mn
Bit rate mode : Variable
Bit rate : 63.0 Kbps
Maximum bit rate : 155 Kbps
Channel(s) : 2 channels
Channel positions : L R
Sampling rate : 48.0 KHz
Resolution : 16 bits
Stream size : 45.3 MiB (11%)
Encoded date : UTC 2010-10-17 11:49:22
Tagged date : UTC 2010-10-17 11:49:26

Leslie Wright (Queen Latifah) is a straight-shooting physical therapist tired of being a guy's girl. She is living with her childhood best friend, Morgan, who hopes to be an NBA trophy wife. After a Nets basketball game, Leslie helps star player, Scott McKnight (Common) at the gas station. He invites her to his birthday party, where she shows up with Morgan.He meets Morgan and suddenly takes an interest in her. After a quick relationship, Scott and Morgan end up being engaged. At the 2009 NBA All-Star Game (which was filmed at the Izod Center even though the game really took place at the US Airways Center), Scott becomes injured, an injury that could possibly ruin his career. Morgan suggests that he enlist the help of Leslie,
 
http://www.imdb.com/title/tt1407061/

screen shots
 
http://img814.imageshack.us/img814/7144/justwrighth264vicemp4sn.jpg 
http://img810.imageshack.us/img810/7144/justwrighth264vicemp4sn.jpg 
http://img64.imageshack.us/img64/7144/justwrighth264vicemp4sn.jpg 
http://img209.imageshack.us/img209/7144/justwrighth264vicemp4sn.jpg
 
http://img259.imageshack.us/img259/8943/justwrighth264vicemp4th.jpg